<?xml version="1.0" encoding="utf-8"?>
<!-- Svg Vector Icons : http://www.onlinewebfonts.com/icon -->
<!DOCTYPE svg PUBLIC "-//W3C//DTD SVG 1.1//EN" "http://www.w3.org/Graphics/SVG/1.1/DTD/svg11.dtd">
<svg version="1.1" xmlns="http://www.w3.org/2000/svg" xmlns:xlink="http://www.w3.org/1999/xlink" x="0px" y="0px" viewBox="0 0 1000 1000" enable-background="new 0 0 1000 1000" xml:space="preserve">
<metadata> Svg Vector Icons : http://www.onlinewebfonts.com/icon </metadata>
<g><path d="M212.5,896.6c0,29.6-10.2,52.7-30.6,69.1s-45.1,25-74.1,25.7c-39.5,0-71.1-12.2-94.8-36.5l30.6-48.4c18.4,16.5,38.2,24.7,59.3,24.7c10.5,0,19.8-2.6,27.7-7.9c7.9-5.3,11.9-13.2,11.9-23.7c0-23-19.4-33.3-58.3-30.6l-13.8-30.6c2.6-4,8.6-11.9,17.8-23.7c9.2-11.9,17.1-22.1,23.7-30.6s13.2-15.5,19.8-20.7v-1c-5.9,0-14.8,0.3-26.7,1c-11.9,0.7-20.7,0.7-26.7,0v29.6H19.9v-84h183.7v48.4l-52.4,64.2c18.4,4,33.3,12.8,44.4,26.7C206.9,862,212.5,878.1,212.5,896.6L212.5,896.6z M213.5,550.9v87.9H14c-2.6-13.2-4-23-4-29.6c0-19.1,4.6-36.2,13.8-51.4c9.2-15.1,19.4-27.7,30.6-37.5c11.2-9.9,23.4-18.8,36.5-26.7c13.2-7.9,23.4-15.8,30.6-23.7c7.2-7.9,11.9-16.1,13.8-24.7c0-9.2-3-16.5-8.9-21.7c-5.9-5.3-13.2-7.6-21.7-6.9c-16.5,0-31.3,10.5-44.4,31.6L14,415.5c8.6-18.4,21.7-32.9,39.5-43.5c17.8-10.5,37.2-15.8,58.3-15.8c26.3,0,48.7,7.6,67.2,22.7c18.4,15.1,27.7,35.9,27.7,62.2c0,18.4-6.3,35.2-18.8,50.4c-12.5,15.1-26.3,27-41.5,35.6s-29,17.8-41.5,27.7c-12.5,9.9-19.1,19.8-19.8,29.6h70.1v-33.6H213.5L213.5,550.9z M989.9,726.7v105.7c0,5.3-1.6,9.5-4.9,12.8c-3.3,3.3-7.6,4.9-12.8,4.9H302.4c-5.3,0-9.5-1.6-12.8-4.9c-3.3-3.3-4.9-7.6-4.9-12.8V726.7c0-5.3,1.6-9.5,4.9-12.8c3.3-3.3,7.6-4.9,12.8-4.9h669.7c4.6,0,8.9,2,12.8,5.9C988.9,718.8,990.5,722.7,989.9,726.7z M213.5,230.8v55.3H28.8v-55.3H88c0-14.5,0-36.9,0-67.2c0-30.3,0.3-52.4,1-66.2v-6.9h-1c-3.3,6.6-12.5,16.5-27.7,29.6L20.9,78.7L95.9,8.6h58.3v222.2H213.5z M989.9,444.2v106.7c0,4.6-1.6,8.6-4.9,11.9c-3.3,3.3-7.6,4.9-12.8,4.9H302.4c-5.3,0-9.5-1.6-12.8-4.9c-3.3-3.3-4.9-7.2-4.9-11.9V444.2c0-4.6,1.6-8.6,4.9-11.9c3.3-3.3,7.6-4.9,12.8-4.9h669.7c4.6,0,8.9,1.6,12.8,4.9C988.9,435.6,990.5,439.6,989.9,444.2z M989.9,162.7v105.7c0,4.6-1.6,8.6-4.9,11.9c-3.3,3.3-7.6,5.3-12.8,5.9H302.4c-5.3,0-9.5-2-12.8-5.9s-4.9-7.9-4.9-11.9V162.7c0-5.3,1.6-9.5,4.9-12.8c3.3-3.3,7.6-4.9,12.8-4.9h669.7c4.6,0,8.9,1.6,12.8,4.9C988.9,153.1,990.5,157.4,989.9,162.7z"/></g>
</svg>